HIERARCHY
ROOT Hips
{
	OFFSET -0.001795 -0.223333 0.028219
	CHANNELS 6 Xposition Yposition Zposition Zrotation Yrotation Xrotation 
	JOINT LeftUpLeg
	{
		OFFSET 0.069520 -0.091406 -0.006815
		CHANNELS 3 Zrotation Yrotation Xrotation
		JOINT LeftLeg
		{
			OFFSET 0.034277 -0.375199 -0.004496
			CHANNELS 3 Zrotation Yrotation Xrotation
			JOINT LeftFoot
			{
				OFFSET -0.013596 -0.397961 -0.043693
				CHANNELS 3 Zrotation Yrotation Xrotation
				JOINT LeftToe
				{
					OFFSET 0.026358 -0.055791 0.119288
					CHANNELS 3 Zrotation Yrotation Xrotation
					End Site
					{
						OFFSET 0.000000 0.000000 0.000000
					}
				}
			}
		}
	}
	JOINT RightUpLeg
	{
		OFFSET -0.067670 -0.090522 -0.004320
		CHANNELS 3 Zrotation Yrotation Xrotation
		JOINT RightLeg
		{
			OFFSET -0.038290 -0.382569 -0.008850
			CHANNELS 3 Zrotation Yrotation Xrotation
			JOINT RightFoot
			{
				OFFSET 0.015774 -0.398415 -0.042312
				CHANNELS 3 Zrotation Yrotation Xrotation
				JOINT RightToe
				{
					OFFSET -0.025372 -0.048144 0.123348
					CHANNELS 3 Zrotation Yrotation Xrotation
					End Site
					{
						OFFSET 0.000000 0.000000 0.000000
					}
				}
			}
		}
	}
	JOINT Spine
	{
		OFFSET -0.002533 0.108963 -0.026696
		CHANNELS 3 Zrotation Yrotation Xrotation
		JOINT Spine1
		{
			OFFSET 0.005487 0.135180 0.001092
			CHANNELS 3 Zrotation Yrotation Xrotation
			JOINT Spine2
			{
				OFFSET 0.001457 0.052922 0.025425
				CHANNELS 3 Zrotation Yrotation Xrotation
				JOINT Neck
				{
					OFFSET -0.002778 0.213870 -0.042857
					CHANNELS 3 Zrotation Yrotation Xrotation
					JOINT Head
					{
						OFFSET 0.005152 0.064970 0.051349
						CHANNELS 3 Zrotation Yrotation Xrotation
						End Site
						{
							OFFSET 0.000000 0.000000 0.000000
						}
					}
				}
				JOINT LeftShoulder
				{
					OFFSET 0.078845 0.121749 -0.034090
					CHANNELS 3 Zrotation Yrotation Xrotation
					JOINT LeftArm
					{
						OFFSET 0.090977 0.030469 -0.008868
						CHANNELS 3 Zrotation Yrotation Xrotation
						JOINT LeftForeArm
						{
							OFFSET 0.259612 -0.012772 -0.027456
							CHANNELS 3 Zrotation Yrotation Xrotation
							JOINT LeftHand
							{
								OFFSET 0.249234 0.008986 -0.001171
								CHANNELS 3 Zrotation Yrotation Xrotation
								End Site
								{
									OFFSET 0.000000 0.000000 0.000000
								}
							}
						}
					}
				}
				JOINT RightShoulder
				{
					OFFSET -0.081759 0.118833 -0.038615
					CHANNELS 3 Zrotation Yrotation Xrotation
					JOINT RightArm
					{
						OFFSET -0.096012 0.032551 -0.009143
						CHANNELS 3 Zrotation Yrotation Xrotation
						JOINT RightForeArm
						{
							OFFSET -0.253742 -0.013329 -0.021401
							CHANNELS 3 Zrotation Yrotation Xrotation
							JOINT RightHand
							{
								OFFSET -0.255298 0.007772 -0.005559
								CHANNELS 3 Zrotation Yrotation Xrotation
								End Site
								{
									OFFSET 0.000000 0.000000 0.000000
								}
							}
						}
					}
				}
			}
		}
	}
}
MOTION
Frames: 6
Frame Time: 0.050000
0.000000 0.911060 0.000000 0.832592 1.467969 -2.614045 -7.794865 -1.144568 -7.425500 -3.516654 0.216627 22.364530 5.222901 8.661870 -7.985819 0.000000 0.000000 0.000000 -7.706773 0.722393 -20.414341 7.031277 -2.678299 57.223884 -5.759658 -13.896946 -2.413727 0.000000 0.000000 0.000000 3.454830 -1.087984 15.004644 1.103104 0.258887 -20.617693 -1.741115 0.849055 24.201637 3.066180 0.067461 -25.496773 0.000000 0.000000 0.000000 -27.199559 -3.180319 -0.442530 -48.303382 -7.114084 -4.798219 -5.657800 -32.405030 3.221166 0.000000 0.000000 0.000000 23.999364 2.060353 0.329852 51.144443 6.000883 -4.771522 -3.619274 30.532710 0.669809 0.000000 0.000000 0.000000 
0.001529 0.909531 0.017965 1.076566 4.784402 -5.280024 -8.822460 -0.650381 -3.950121 -1.896842 -0.549595 23.478580 4.535825 5.846138 -9.437627 0.000000 0.000000 0.000000 -8.491645 0.377504 -23.477531 6.278616 -3.386408 59.392365 -6.004697 -14.613317 -1.210370 0.000000 0.000000 0.000000 3.217816 -1.374558 18.357995 1.209717 0.309633 -20.791935 -2.414635 -0.392094 24.603333 2.471565 0.654881 -27.281224 0.000000 0.000000 0.000000 -26.293565 -2.519855 -1.048549 -48.985256 -7.669624 -4.629238 -5.236903 -33.156465 3.138353 0.000000 0.000000 0.000000 23.390970 3.067451 1.229752 52.409929 5.841019 -5.048997 -3.063462 30.925863 0.892357 0.000000 0.000000 0.000000 
0.002981 0.909312 0.036854 0.610818 6.978686 -6.815322 -7.453018 -0.184236 -1.214770 -2.243404 -0.645464 24.378804 4.526875 5.330033 -9.657518 0.000000 0.000000 0.000000 -6.338972 0.714018 -26.314107 2.124995 -1.004663 55.630702 -5.419027 -13.224161 -0.302885 0.000000 0.000000 0.000000 2.521729 -1.447216 19.760495 1.712544 0.237972 -21.316799 -2.214800 -0.522568 25.589027 1.321514 1.542623 -28.235593 0.000000 0.000000 0.000000 -26.629586 -2.923627 -1.215332 -48.624260 -8.374468 -4.315365 -5.652239 -32.607319 3.119209 0.000000 0.000000 0.000000 23.259168 2.536509 1.346483 52.594078 5.528013 -5.442154 -3.894805 32.683182 0.885090 0.000000 0.000000 0.000000 
0.004686 0.907234 0.056259 0.054048 9.709768 -6.695255 -7.254713 -0.069190 -0.610257 -1.907462 -1.005794 25.019524 4.476553 4.371833 -10.275923 0.000000 0.000000 0.000000 -6.264822 0.503866 -29.156520 -0.069267 -0.045076 46.299845 -2.634493 -7.420628 3.947121 0.000000 0.000000 0.000000 2.731329 -1.534575 19.224385 2.070948 0.218087 -21.665495 -2.248269 -1.693721 26.100889 0.444422 2.068593 -27.688286 0.000000 0.000000 0.000000 -27.046754 -3.172347 -1.318309 -49.205423 -9.157688 -4.000687 -4.230730 -31.070837 2.536790 0.000000 0.000000 0.000000 21.823326 2.975655 1.781252 54.733942 6.444163 -5.187735 -4.869752 31.833995 0.673937 0.000000 0.000000 0.000000 
0.006222 0.905286 0.076919 -0.354130 13.406835 -6.052700 -6.052866 0.186317 1.003980 -2.051943 -1.144108 23.984801 5.426491 3.767759 -13.921493 0.000000 0.000000 0.000000 -6.465222 0.064628 -29.752355 -0.809495 0.133151 33.104596 -0.461208 -2.730129 5.325757 0.000000 0.000000 0.000000 2.617170 -1.491641 17.793014 2.012862 0.330431 -22.003046 -2.271312 -3.631156 26.964019 -0.462197 2.612863 -27.530448 0.000000 0.000000 0.000000 -25.624786 -3.754159 -0.941143 -51.865895 -10.816311 -3.552455 -2.661267 -28.595490 1.933988 0.000000 0.000000 0.000000 20.396535 2.355593 1.572071 56.256518 6.779662 -5.143951 -4.085221 30.484864 0.885379 0.000000 0.000000 0.000000 
0.007883 0.903155 0.099264 -0.172412 17.272980 -5.066913 -5.708680 0.355302 2.224489 -1.737624 -1.281451 22.053468 5.551026 1.345863 -16.031896 0.000000 0.000000 0.000000 -6.583973 -0.275364 -27.821156 -1.347057 0.416214 17.715006 2.535546 3.586712 6.504779 0.000000 0.000000 0.000000 2.044087 -1.383862 16.661999 1.493094 0.584074 -23.273207 -2.086585 -5.070569 27.966511 -0.711140 2.961336 -28.877116 0.000000 0.000000 0.000000 -26.135050 -3.259516 -1.667970 -52.898345 -12.208215 -2.997494 -0.610308 -27.170088 1.319031 0.000000 0.000000 0.000000 20.916465 0.140992 0.680865 57.066507 5.185166 -6.090331 -3.053555 31.081789 1.326782 0.000000 0.000000 0.000000 
